<mxfile host="app.diagrams.net" modified="2023-10-25T03:53:29.269Z" agent="Mozilla/5.0 (Windows NT 10.0; Win64; x64) AppleWebKit/537.36 (KHTML, like Gecko) Chrome/118.0.0.0 Safari/537.36" etag="gagVXbVKpUEoAN4I7hzO" version="22.0.7" type="github">
  <diagram name="PÃ¡gina-1" id="FNVlxbY_5hZAIGMPvLUF">
    <mxGraphModel dx="2261" dy="768" grid="1" gridSize="10" guides="1" tooltips="1" connect="1" arrows="1" fold="1" page="1" pageScale="1" pageWidth="827" pageHeight="1169" math="0" shadow="0">
      <root>
        <mxCell id="0" />
        <mxCell id="1" parent="0" />
        <mxCell id="ii-14larT71zosDay65v-20" value="" style="whiteSpace=wrap;html=1;aspect=fixed;dashed=1;strokeWidth=2;" parent="1" vertex="1">
          <mxGeometry x="40" y="20" width="650" height="650" as="geometry" />
        </mxCell>
        <mxCell id="ii-14larT71zosDay65v-6" value="" style="shape=actor;whiteSpace=wrap;html=1;fillColor=#d5e8d4;strokeColor=#82b366;" parent="1" vertex="1">
          <mxGeometry x="315" y="50" width="100" height="120" as="geometry" />
        </mxCell>
        <mxCell id="ii-14larT71zosDay65v-8" value="" style="rounded=0;whiteSpace=wrap;html=1;fillColor=#fff2cc;strokeColor=#d6b656;" parent="1" vertex="1">
          <mxGeometry x="305" y="280" width="120" height="60" as="geometry" />
        </mxCell>
        <mxCell id="ii-14larT71zosDay65v-10" value="" style="rounded=0;whiteSpace=wrap;html=1;fillColor=#dae8fc;strokeColor=#6c8ebf;" parent="1" vertex="1">
          <mxGeometry x="305" y="440" width="120" height="60" as="geometry" />
        </mxCell>
        <mxCell id="ii-14larT71zosDay65v-12" value="" style="html=1;labelBackgroundColor=#ffffff;startArrow=classic;startFill=1;startSize=6;endArrow=classic;endFill=1;endSize=6;jettySize=auto;orthogonalLoop=1;strokeWidth=1;dashed=1;fontSize=14;rounded=0;entryX=0.5;entryY=1;entryDx=0;entryDy=0;exitX=0.5;exitY=0;exitDx=0;exitDy=0;" parent="1" source="ii-14larT71zosDay65v-10" target="ii-14larT71zosDay65v-8" edge="1">
          <mxGeometry width="60" height="60" relative="1" as="geometry">
            <mxPoint x="280" y="440" as="sourcePoint" />
            <mxPoint x="340" y="380" as="targetPoint" />
          </mxGeometry>
        </mxCell>
        <mxCell id="ii-14larT71zosDay65v-13" value="" style="html=1;labelBackgroundColor=#ffffff;startArrow=classic;startFill=1;startSize=6;endArrow=classic;endFill=1;endSize=6;jettySize=auto;orthogonalLoop=1;strokeWidth=1;dashed=1;fontSize=14;rounded=0;entryX=0.5;entryY=1;entryDx=0;entryDy=0;jumpSize=6;exitX=0.5;exitY=0;exitDx=0;exitDy=0;" parent="1" source="ii-14larT71zosDay65v-8" target="ii-14larT71zosDay65v-6" edge="1">
          <mxGeometry width="60" height="60" relative="1" as="geometry">
            <mxPoint x="280" y="270" as="sourcePoint" />
            <mxPoint x="340" y="380" as="targetPoint" />
          </mxGeometry>
        </mxCell>
        <mxCell id="ii-14larT71zosDay65v-14" value="&lt;font style=&quot;font-size: 18px;&quot;&gt;User&lt;/font&gt;" style="text;strokeColor=none;align=center;fillColor=none;html=1;verticalAlign=middle;whiteSpace=wrap;rounded=0;" parent="1" vertex="1">
          <mxGeometry x="330" y="110" width="70" height="40" as="geometry" />
        </mxCell>
        <mxCell id="ii-14larT71zosDay65v-15" value="&lt;font style=&quot;font-size: 15px;&quot;&gt;App de control de gastos&lt;/font&gt;" style="text;strokeColor=none;align=center;fillColor=none;html=1;verticalAlign=middle;whiteSpace=wrap;rounded=0;" parent="1" vertex="1">
          <mxGeometry x="315" y="290" width="100" height="40" as="geometry" />
        </mxCell>
        <mxCell id="ii-14larT71zosDay65v-16" value="&lt;font style=&quot;font-size: 15px;&quot;&gt;Base de datos&lt;/font&gt;" style="text;strokeColor=none;align=center;fillColor=none;html=1;verticalAlign=middle;whiteSpace=wrap;rounded=0;" parent="1" vertex="1">
          <mxGeometry x="315" y="450" width="100" height="40" as="geometry" />
        </mxCell>
        <mxCell id="ii-14larT71zosDay65v-18" value="&lt;font style=&quot;font-size: 18px;&quot;&gt;Interfaz Web&lt;/font&gt;" style="text;strokeColor=none;align=center;fillColor=none;html=1;verticalAlign=middle;whiteSpace=wrap;rounded=0;" parent="1" vertex="1">
          <mxGeometry x="369" y="200" width="90" height="40" as="geometry" />
        </mxCell>
        <mxCell id="ii-14larT71zosDay65v-19" value="&lt;b&gt;&lt;font style=&quot;font-size: 19px;&quot;&gt;System Context diagram&lt;/font&gt;&lt;/b&gt;" style="text;strokeColor=none;align=center;fillColor=none;html=1;verticalAlign=middle;whiteSpace=wrap;rounded=0;" parent="1" vertex="1">
          <mxGeometry x="50" y="10" width="170" height="80" as="geometry" />
        </mxCell>
        <mxCell id="tggoakVdAM6RXXFxXQV1-1" value="" style="whiteSpace=wrap;html=1;aspect=fixed;dashed=1;strokeWidth=2;" parent="1" vertex="1">
          <mxGeometry x="40" y="550" width="650" height="650" as="geometry" />
        </mxCell>
        <mxCell id="tggoakVdAM6RXXFxXQV1-2" value="&lt;b&gt;&lt;font style=&quot;font-size: 19px;&quot;&gt;Container diagram&lt;/font&gt;&lt;/b&gt;" style="text;strokeColor=none;align=center;fillColor=none;html=1;verticalAlign=middle;whiteSpace=wrap;rounded=0;" parent="1" vertex="1">
          <mxGeometry x="50" y="530" width="170" height="80" as="geometry" />
        </mxCell>
        <mxCell id="tggoakVdAM6RXXFxXQV1-5" value="" style="shape=actor;whiteSpace=wrap;html=1;fillColor=#d5e8d4;strokeColor=#82b366;" parent="1" vertex="1">
          <mxGeometry x="232" y="599" width="100" height="120" as="geometry" />
        </mxCell>
        <mxCell id="tggoakVdAM6RXXFxXQV1-27" value="" style="rounded=0;whiteSpace=wrap;html=1;" parent="1" vertex="1">
          <mxGeometry x="180" y="770" width="410" height="250" as="geometry" />
        </mxCell>
        <mxCell id="tggoakVdAM6RXXFxXQV1-6" value="&lt;font style=&quot;font-size: 18px;&quot;&gt;User&lt;/font&gt;" style="text;strokeColor=none;align=center;fillColor=none;html=1;verticalAlign=middle;whiteSpace=wrap;rounded=0;" parent="1" vertex="1">
          <mxGeometry x="247" y="669" width="70" height="40" as="geometry" />
        </mxCell>
        <mxCell id="tggoakVdAM6RXXFxXQV1-8" value="" style="rounded=0;whiteSpace=wrap;html=1;fillColor=#fff2cc;strokeColor=#d6b656;fontStyle=1" parent="1" vertex="1">
          <mxGeometry x="220" y="802" width="120" height="60" as="geometry" />
        </mxCell>
        <mxCell id="tggoakVdAM6RXXFxXQV1-9" value="&lt;font style=&quot;font-size: 15px; font-weight: normal;&quot;&gt;Front End&lt;/font&gt;" style="text;strokeColor=none;align=center;fillColor=none;html=1;verticalAlign=middle;whiteSpace=wrap;rounded=0;fontStyle=1" parent="1" vertex="1">
          <mxGeometry x="230" y="812" width="100" height="40" as="geometry" />
        </mxCell>
        <mxCell id="tggoakVdAM6RXXFxXQV1-10" value="" style="rounded=0;whiteSpace=wrap;html=1;fillColor=#fff2cc;strokeColor=#d6b656;" parent="1" vertex="1">
          <mxGeometry x="430" y="802" width="120" height="60" as="geometry" />
        </mxCell>
        <mxCell id="tggoakVdAM6RXXFxXQV1-11" value="&lt;font style=&quot;font-size: 15px;&quot;&gt;&lt;b&gt;Back End&lt;/b&gt;&lt;/font&gt;" style="text;strokeColor=none;align=center;fillColor=none;html=1;verticalAlign=middle;whiteSpace=wrap;rounded=0;" parent="1" vertex="1">
          <mxGeometry x="440" y="812" width="100" height="40" as="geometry" />
        </mxCell>
        <mxCell id="tggoakVdAM6RXXFxXQV1-15" value="" style="rounded=0;whiteSpace=wrap;html=1;fillColor=#dae8fc;strokeColor=#6c8ebf;" parent="1" vertex="1">
          <mxGeometry x="430" y="940" width="120" height="60" as="geometry" />
        </mxCell>
        <mxCell id="tggoakVdAM6RXXFxXQV1-16" value="&lt;font style=&quot;font-size: 15px;&quot;&gt;Base de datos&lt;/font&gt;" style="text;strokeColor=none;align=center;fillColor=none;html=1;verticalAlign=middle;whiteSpace=wrap;rounded=0;" parent="1" vertex="1">
          <mxGeometry x="440" y="950" width="100" height="40" as="geometry" />
        </mxCell>
        <mxCell id="tggoakVdAM6RXXFxXQV1-23" value="" style="html=1;labelBackgroundColor=#ffffff;startArrow=classic;startFill=1;startSize=6;endArrow=classic;endFill=1;endSize=6;jettySize=auto;orthogonalLoop=1;strokeWidth=1;dashed=1;fontSize=14;rounded=0;entryX=0.5;entryY=1;entryDx=0;entryDy=0;" parent="1" edge="1">
          <mxGeometry width="60" height="60" relative="1" as="geometry">
            <mxPoint x="489.83" y="940" as="sourcePoint" />
            <mxPoint x="489.83" y="862" as="targetPoint" />
          </mxGeometry>
        </mxCell>
        <mxCell id="tggoakVdAM6RXXFxXQV1-24" value="" style="html=1;labelBackgroundColor=#ffffff;startArrow=classic;startFill=1;startSize=6;endArrow=classic;endFill=1;endSize=6;jettySize=auto;orthogonalLoop=1;strokeWidth=1;dashed=1;fontSize=14;rounded=0;entryX=0;entryY=0.5;entryDx=0;entryDy=0;" parent="1" source="tggoakVdAM6RXXFxXQV1-8" target="tggoakVdAM6RXXFxXQV1-10" edge="1">
          <mxGeometry width="60" height="60" relative="1" as="geometry">
            <mxPoint x="380" y="871" as="sourcePoint" />
            <mxPoint x="380" y="793" as="targetPoint" />
          </mxGeometry>
        </mxCell>
        <mxCell id="tggoakVdAM6RXXFxXQV1-25" value="" style="html=1;labelBackgroundColor=#ffffff;startArrow=classic;startFill=1;startSize=6;endArrow=classic;endFill=1;endSize=6;jettySize=auto;orthogonalLoop=1;strokeWidth=1;dashed=1;fontSize=14;rounded=0;entryX=0.5;entryY=1;entryDx=0;entryDy=0;" parent="1" source="tggoakVdAM6RXXFxXQV1-8" target="tggoakVdAM6RXXFxXQV1-5" edge="1">
          <mxGeometry width="60" height="60" relative="1" as="geometry">
            <mxPoint x="300" y="797" as="sourcePoint" />
            <mxPoint x="300" y="719" as="targetPoint" />
          </mxGeometry>
        </mxCell>
        <mxCell id="tggoakVdAM6RXXFxXQV1-28" value="&lt;b&gt;&lt;font style=&quot;font-size: 10px;&quot;&gt;App Control de gastos&amp;nbsp;&lt;/font&gt;&lt;/b&gt;" style="text;strokeColor=none;align=center;fillColor=none;html=1;verticalAlign=middle;whiteSpace=wrap;rounded=0;" parent="1" vertex="1">
          <mxGeometry x="171" y="745" width="104" height="80" as="geometry" />
        </mxCell>
        <mxCell id="Hy5Di2g71wOpJEAGAoTu-3" value="" style="whiteSpace=wrap;html=1;aspect=fixed;dashed=1;strokeWidth=2;" parent="1" vertex="1">
          <mxGeometry x="40" y="1200" width="650" height="650" as="geometry" />
        </mxCell>
        <mxCell id="Hy5Di2g71wOpJEAGAoTu-4" value="&lt;b&gt;&lt;font style=&quot;font-size: 19px;&quot;&gt;Component diagram&lt;/font&gt;&lt;/b&gt;" style="text;strokeColor=none;align=center;fillColor=none;html=1;verticalAlign=middle;whiteSpace=wrap;rounded=0;" parent="1" vertex="1">
          <mxGeometry x="50" y="1190" width="190" height="80" as="geometry" />
        </mxCell>
        <mxCell id="Hy5Di2g71wOpJEAGAoTu-5" value="" style="endArrow=classic;html=1;rounded=0;entryX=-0.012;entryY=0.464;entryDx=0;entryDy=0;exitX=0;exitY=0.5;exitDx=0;exitDy=0;entryPerimeter=0;dashed=1;dashPattern=1 2;" parent="1" source="ii-14larT71zosDay65v-8" target="tggoakVdAM6RXXFxXQV1-27" edge="1">
          <mxGeometry width="50" height="50" relative="1" as="geometry">
            <mxPoint x="425" y="310" as="sourcePoint" />
            <mxPoint x="475" y="260" as="targetPoint" />
            <Array as="points">
              <mxPoint x="20" y="310" />
              <mxPoint x="20" y="630" />
              <mxPoint x="20" y="886" />
            </Array>
          </mxGeometry>
        </mxCell>
        <mxCell id="_gJMpbhh8tDrJYMOvGbk-4" value="&lt;font style=&quot;font-size: 14px;&quot;&gt;&lt;i&gt;Zoom in&lt;/i&gt;&lt;/font&gt;" style="edgeLabel;html=1;align=center;verticalAlign=middle;resizable=0;points=[];" parent="Hy5Di2g71wOpJEAGAoTu-5" vertex="1" connectable="0">
          <mxGeometry x="-0.0827" y="-2" relative="1" as="geometry">
            <mxPoint x="-8" y="-1" as="offset" />
          </mxGeometry>
        </mxCell>
        <mxCell id="_gJMpbhh8tDrJYMOvGbk-2" value="" style="endArrow=classic;html=1;rounded=0;exitX=0.992;exitY=0.617;exitDx=0;exitDy=0;exitPerimeter=0;entryX=0.997;entryY=0.532;entryDx=0;entryDy=0;entryPerimeter=0;dashed=1;dashPattern=1 1;" parent="1" source="tggoakVdAM6RXXFxXQV1-10" target="_gJMpbhh8tDrJYMOvGbk-10" edge="1">
          <mxGeometry width="50" height="50" relative="1" as="geometry">
            <mxPoint x="740" y="830" as="sourcePoint" />
            <mxPoint x="760" y="1460" as="targetPoint" />
            <Array as="points">
              <mxPoint x="760" y="839" />
              <mxPoint x="760" y="1130" />
              <mxPoint x="760" y="1340" />
              <mxPoint x="760" y="1532" />
            </Array>
          </mxGeometry>
        </mxCell>
        <mxCell id="_gJMpbhh8tDrJYMOvGbk-15" value="&lt;font size=&quot;1&quot; style=&quot;&quot;&gt;&lt;i style=&quot;font-size: 13px;&quot;&gt;Zoom in&lt;/i&gt;&lt;/font&gt;" style="edgeLabel;html=1;align=center;verticalAlign=middle;resizable=0;points=[];" parent="_gJMpbhh8tDrJYMOvGbk-2" vertex="1" connectable="0">
          <mxGeometry x="0.2452" y="5" relative="1" as="geometry">
            <mxPoint as="offset" />
          </mxGeometry>
        </mxCell>
        <mxCell id="_gJMpbhh8tDrJYMOvGbk-5" value="" style="shape=actor;whiteSpace=wrap;html=1;fillColor=#d5e8d4;strokeColor=#82b366;" parent="1" vertex="1">
          <mxGeometry x="173" y="1270" width="100" height="120" as="geometry" />
        </mxCell>
        <mxCell id="_gJMpbhh8tDrJYMOvGbk-7" value="" style="rounded=0;whiteSpace=wrap;html=1;fillColor=#fff2cc;strokeColor=#d6b656;fontStyle=1" parent="1" vertex="1">
          <mxGeometry x="163" y="1440" width="120" height="60" as="geometry" />
        </mxCell>
        <mxCell id="_gJMpbhh8tDrJYMOvGbk-8" value="&lt;font style=&quot;font-size: 15px;&quot;&gt;Front End&lt;/font&gt;" style="text;strokeColor=none;align=center;fillColor=none;html=1;verticalAlign=middle;whiteSpace=wrap;rounded=0;fontStyle=1" parent="1" vertex="1">
          <mxGeometry x="173" y="1450" width="100" height="40" as="geometry" />
        </mxCell>
        <mxCell id="_gJMpbhh8tDrJYMOvGbk-9" value="" style="html=1;labelBackgroundColor=#ffffff;startArrow=classic;startFill=1;startSize=6;endArrow=classic;endFill=1;endSize=6;jettySize=auto;orthogonalLoop=1;strokeWidth=1;dashed=1;fontSize=14;rounded=0;entryX=0.5;entryY=1;entryDx=0;entryDy=0;exitX=0.5;exitY=0;exitDx=0;exitDy=0;" parent="1" source="_gJMpbhh8tDrJYMOvGbk-7" edge="1">
          <mxGeometry width="60" height="60" relative="1" as="geometry">
            <mxPoint x="222.5" y="1473" as="sourcePoint" />
            <mxPoint x="223.5" y="1390" as="targetPoint" />
          </mxGeometry>
        </mxCell>
        <mxCell id="_gJMpbhh8tDrJYMOvGbk-10" value="" style="whiteSpace=wrap;html=1;aspect=fixed;" parent="1" vertex="1">
          <mxGeometry x="340.5" y="1370" width="304.5" height="304.5" as="geometry" />
        </mxCell>
        <mxCell id="_gJMpbhh8tDrJYMOvGbk-11" value="&lt;font style=&quot;font-size: 15px;&quot;&gt;Back End&lt;/font&gt;" style="text;strokeColor=none;align=center;fillColor=none;html=1;verticalAlign=middle;whiteSpace=wrap;rounded=0;fontStyle=1" parent="1" vertex="1">
          <mxGeometry x="340.5" y="1370" width="100" height="40" as="geometry" />
        </mxCell>
        <mxCell id="_gJMpbhh8tDrJYMOvGbk-16" value="" style="rounded=0;whiteSpace=wrap;html=1;fillColor=#dae8fc;strokeColor=#6c8ebf;" parent="1" vertex="1">
          <mxGeometry x="432.75" y="1754" width="120" height="60" as="geometry" />
        </mxCell>
        <mxCell id="_gJMpbhh8tDrJYMOvGbk-17" value="" style="html=1;labelBackgroundColor=#ffffff;startArrow=classic;startFill=1;startSize=6;endArrow=classic;endFill=1;endSize=6;jettySize=auto;orthogonalLoop=1;strokeWidth=1;dashed=1;fontSize=14;rounded=0;entryX=0.5;entryY=1;entryDx=0;entryDy=0;" parent="1" edge="1">
          <mxGeometry width="60" height="60" relative="1" as="geometry">
            <mxPoint x="492.25" y="1754" as="sourcePoint" />
            <mxPoint x="492.25" y="1676" as="targetPoint" />
          </mxGeometry>
        </mxCell>
        <mxCell id="_gJMpbhh8tDrJYMOvGbk-18" value="&lt;font style=&quot;font-size: 15px;&quot;&gt;Base de datos&lt;/font&gt;" style="text;strokeColor=none;align=center;fillColor=none;html=1;verticalAlign=middle;whiteSpace=wrap;rounded=0;" parent="1" vertex="1">
          <mxGeometry x="440" y="1764" width="100" height="40" as="geometry" />
        </mxCell>
        <mxCell id="_gJMpbhh8tDrJYMOvGbk-21" value="" style="html=1;labelBackgroundColor=#ffffff;startArrow=classic;startFill=1;startSize=6;endArrow=classic;endFill=1;endSize=6;jettySize=auto;orthogonalLoop=1;strokeWidth=1;dashed=1;fontSize=14;rounded=0;entryX=0.002;entryY=0.328;entryDx=0;entryDy=0;entryPerimeter=0;exitX=1;exitY=0.5;exitDx=0;exitDy=0;" parent="1" source="_gJMpbhh8tDrJYMOvGbk-7" target="_gJMpbhh8tDrJYMOvGbk-10" edge="1">
          <mxGeometry width="60" height="60" relative="1" as="geometry">
            <mxPoint x="280" y="1480" as="sourcePoint" />
            <mxPoint x="340" y="1420" as="targetPoint" />
          </mxGeometry>
        </mxCell>
        <mxCell id="PWVgZhAqZg9qtrtur5cI-1" value="&lt;font style=&quot;font-size: 15px;&quot;&gt;Base de datos&lt;/font&gt;" style="text;strokeColor=none;align=center;fillColor=none;html=1;verticalAlign=middle;whiteSpace=wrap;rounded=0;" vertex="1" parent="1">
          <mxGeometry x="450" y="1774" width="100" height="40" as="geometry" />
        </mxCell>
      </root>
    </mxGraphModel>
  </diagram>
</mxfile>
